<svg width="64" height="64" viewBox="0 0 64 64" fill="none" xmlns="http://www.w3.org/2000/svg">
  <defs>
    <linearGradient id="dashboardGradient" x1="0%" y1="0%" x2="100%" y2="100%">
      <stop offset="0%" style="stop-color:#4F46E5;stop-opacity:1" />
      <stop offset="50%" style="stop-color:#6366F1;stop-opacity:1" />
      <stop offset="100%" style="stop-color:#3730A3;stop-opacity:1" />
    </linearGradient>
    <linearGradient id="dashboardAccent" x1="0%" y1="0%" x2="100%" y2="100%">
      <stop offset="0%" style="stop-color:#818CF8;stop-opacity:1" />
      <stop offset="100%" style="stop-color:#6366F1;stop-opacity:1" />
    </linearGradient>
  </defs>
  <rect width="64" height="64" rx="16" fill="url(#dashboardGradient)"/>
  <rect x="14" y="16" width="36" height="32" rx="6" fill="white" fill-opacity="0.95"/>
  <rect x="18" y="20" width="12" height="12" rx="3" fill="url(#dashboardAccent)" fill-opacity="0.1"/>
  <rect x="34" y="20" width="16" height="8" rx="3" fill="url(#dashboardAccent)" fill-opacity="0.1"/>
  <rect x="18" y="36" width="16" height="12" rx="3" fill="url(#dashboardAccent)" fill-opacity="0.1"/>
  <rect x="38" y="32" width="12" height="16" rx="3" fill="url(#dashboardAccent)" fill-opacity="0.1"/>
  <rect x="20" y="22" width="8" height="3" rx="1.5" fill="url(#dashboardGradient)"/>
  <rect x="20" y="27" width="6" height="2" rx="1" fill="url(#dashboardGradient)" fill-opacity="0.6"/>
  <rect x="20" y="31" width="7" height="2" rx="1" fill="url(#dashboardGradient)" fill-opacity="0.4"/>
  <rect x="36" y="22" width="12" height="3" rx="1.5" fill="url(#dashboardGradient)"/>
  <rect x="36" y="27" width="8" height="2" rx="1" fill="url(#dashboardGradient)" fill-opacity="0.6"/>
  <rect x="20" y="38" width="12" height="3" rx="1.5" fill="url(#dashboardGradient)"/>
  <rect x="20" y="43" width="10" height="2" rx="1" fill="url(#dashboardGradient)" fill-opacity="0.6"/>
  <rect x="20" y="47" width="8" height="2" rx="1" fill="url(#dashboardGradient)" fill-opacity="0.4"/>
  <rect x="40" y="34" width="8" height="3" rx="1.5" fill="url(#dashboardGradient)"/>
  <rect x="40" y="39" width="6" height="2" rx="1" fill="url(#dashboardGradient)" fill-opacity="0.6"/>
  <rect x="40" y="43" width="7" height="2" rx="1" fill="url(#dashboardGradient)" fill-opacity="0.4"/>
  <rect x="40" y="47" width="5" height="2" rx="1" fill="url(#dashboardGradient)" fill-opacity="0.4"/>
  <circle cx="16" cy="16" r="3" fill="url(#dashboardGradient)" fill-opacity="0.3"/>
  <circle cx="48" cy="16" r="3" fill="url(#dashboardGradient)" fill-opacity="0.3"/>
  <circle cx="16" cy="48" r="3" fill="url(#dashboardGradient)" fill-opacity="0.3"/>
  <circle cx="48" cy="48" r="3" fill="url(#dashboardGradient)" fill-opacity="0.3"/>
</svg>